<?xml version="1.0" encoding="UTF-8"?>
<svg id="Layer_1" data-name="Layer 1" xmlns="http://www.w3.org/2000/svg" viewBox="0 0 917.62 249.93">
  <defs>
    <style>
      .cls-1, .cls-2 {
        stroke-width: 0px;
      }

      .cls-2 {
        fill: #000101;
      }
    </style>
  </defs>
  <rect class="cls-2" x="111.05" y="234.18" width="5.25" height="5.25"/>
  <rect class="cls-2" x="111.05" y="223.69" width="5.25" height="5.25"/>
  <polygon class="cls-2" points="134.69 190.04 130.98 193.75 127.27 197.46 127.27 202.7 127.27 207.95 127.27 213.19 129.89 210.57 132.51 207.95 132.51 202.7 132.51 199.63 134.69 197.46 137.76 194.38 137.76 197.46 137.76 202.7 137.76 207.95 140.38 205.32 143 202.7 143 197.46 143 192.21 143 189.14 145.81 186.33 142.1 182.62 138.4 186.33 134.69 190.04"/>
  <rect class="cls-2" x="168.72" y="213.19" width="5.25" height="5.25"/>
  <polygon class="cls-2" points="132.51 213.19 129.89 215.82 127.27 218.44 132.51 218.44 132.51 213.19"/>
  <polygon class="cls-2" points="143 207.78 140.38 210.41 137.76 213.03 143 213.03 143 207.78"/>
  <polygon class="cls-2" points="153.5 202.7 150.87 205.32 148.25 207.95 153.5 207.95 153.5 202.7"/>
  <polygon class="cls-2" points="168.72 155.98 168.74 155.98 168.07 156.65 164.36 160.36 160.65 164.07 156.94 167.78 153.23 171.49 149.52 175.2 145.81 178.91 142.1 182.62 145.81 186.33 148.25 183.89 148.25 186.97 148.25 192.21 148.25 197.46 148.25 202.7 150.87 200.08 153.5 197.46 153.5 192.21 153.5 186.97 153.5 178.65 156.94 175.2 160.65 171.49 164.36 167.78 168.07 164.07 168.72 163.42 168.72 165.98 168.72 171.23 168.72 176.47 168.72 181.72 168.72 186.97 168.72 192.21 168.72 197.46 168.72 202.7 168.72 207.95 173.97 207.95 173.97 202.7 173.97 197.46 173.97 192.21 173.97 186.97 173.97 181.72 173.97 176.47 173.97 171.23 173.97 165.98 173.97 160.74 173.97 155.98 173.97 155.49 173.97 150.74 171.31 153.32 168.72 155.98"/>
  <path class="cls-2" d="M168.72,234.18h-5.23v-5.25h5.23v5.25ZM168.72,223.69h-10.47v15.73h10.47v5.25h-15.72v-21h-31.46v15.73h15.74v5.25h-49.16l1.09-1.09,3.71-3.71,3.71-3.71,3.71-3.71,3.13-3.13,3.71-3.71,3.71-3.71,3.71-3.71,3.71-3.71,3.71-3.71v-7.42l-3.71,3.71-3.71,3.71-3.71,3.71-3.71,3.71-3.71,3.71-3.71,3.71-3.13,3.13-.57.58-3.14,3.13-3.71,3.71-3.71,3.71-3.71,3.71-6.32,6.33h67.05v-15.71h-15.73v-5.25h21v21h26.21v-26.24h-5.28Z"/>
  <rect class="cls-2" x="33.72" y="193.68" width="5.25" height="5.25" transform="translate(-128.17 83.2) rotate(-45)"/>
  <rect class="cls-2" x="41.13" y="186.27" width="5.25" height="5.25" transform="translate(-120.76 86.27) rotate(-45)"/>
  <rect class="cls-2" x="89.33" y="219.64" width="5.25" height="5.25" transform="translate(-130.23 130.12) rotate(-45)"/>
  <polygon class="cls-2" points="58.93 192.95 62.64 196.66 66.35 192.95 62.64 192.95 58.93 192.95"/>
  <polygon class="cls-2" points="70.18 196.54 73.89 200.25 77.6 196.54 73.89 196.54 70.18 196.54"/>
  <polygon class="cls-2" points="81.19 200.37 84.9 204.08 88.61 200.37 84.9 200.37 81.19 200.37"/>
  <polygon class="cls-2" points="121.63 188.88 117.92 192.59 114.21 196.3 110.5 200.01 106.8 203.72 103.08 207.43 99.38 211.13 95.67 214.84 99.38 218.55 103.08 214.84 106.8 211.13 110.5 207.43 114.21 203.72 117.92 200.01 121.63 196.3 125.34 192.59 129.05 188.88 132.76 185.17 136.12 181.81 136.47 181.46 139.83 178.1 136.12 178.04 132.41 178.1 132.43 178.11 131.47 178.11 126.23 178.11 120.98 178.11 115.74 178.11 110.49 178.11 105.25 178.11 100 178.11 94.75 178.11 89.51 178.11 84.26 178.11 79.02 178.11 73.77 178.11 70.06 181.82 66.35 185.53 62.64 189.24 66.35 189.24 70.06 189.24 73.77 185.53 75.94 183.36 79.02 183.36 83.36 183.36 81.19 185.53 77.48 189.24 73.77 192.95 77.48 192.95 81.19 192.95 84.9 189.24 88.61 185.53 90.78 183.36 94.75 183.36 98.2 183.36 96.03 185.53 92.32 189.24 88.61 192.95 84.9 196.66 88.61 196.66 92.32 196.66 96.03 192.95 99.74 189.24 105.62 183.36 110.49 183.36 115.74 183.36 120.98 183.36 126.23 183.36 127.15 183.36 125.34 185.17 121.63 188.88"/>
  <path class="cls-2" d="M77.13,225.98l3.7,3.7-3.71,3.71-3.7-3.7,3.71-3.71ZM80.83,237.1l3.71-3.71,3.71-3.71-3.7-3.7h0l-3.7-3.7-3.72-3.72-3.71,3.71-3.71,3.71-3.71,3.71,3.71,3.71,3.7,3.7-3.71,3.71-3.7-3.7-3.71-3.71-3.7-3.7,3.71-3.71,3.7-3.71,3.72-3.72,3.71-3.71-3.71-3.71-3.72-3.69-3.71-3.71-3.71-3.71-3.71-3.71-3.7-3.71-3.71,3.71-3.71,3.71-3.71,3.71,3.71,3.71,3.71,3.7,3.71,3.71-3.7,3.7-24.4-24.39-3.71-3.71-3.71-3.71-2.94-2.94h47.94l2.62-2.63,2.62-2.62H.05l4.47,4.48.77.77,2.94,2.94,3.71,3.71,3.71,3.71,3.71,3.71,28.11,28.1,3.71-3.71,3.7-3.71,3.71-3.71-3.71-3.71-3.7-3.7-3.71-3.71,3.71-3.71,3.7,3.71,3.71,3.71,3.71,3.7,3.7,3.72-3.7,3.7-3.71,3.71-3.71,3.71-3.7,3.71,3.69,3.7h0l3.7,3.7,3.71,3.71,3.72,3.76h0l3.7,3.7,3.71-3.7,3.71-3.71,3.71-3.75Z"/>
  <rect class="cls-2" x="10.49" y="110.41" width="5.25" height="5.25"/>
  <rect class="cls-2" x="20.98" y="110.41" width="5.25" height="5.25"/>
  <polygon class="cls-2" points="59.88 134.04 56.17 130.33 52.46 126.62 47.21 126.62 41.97 126.62 36.72 126.62 39.34 129.25 41.97 131.87 47.21 131.87 50.28 131.87 52.46 134.04 55.53 137.11 52.46 137.11 47.21 137.11 41.97 137.11 44.59 139.74 47.21 142.36 52.46 142.36 57.7 142.36 60.78 142.36 63.58 145.17 67.3 141.46 63.58 137.75 59.88 134.04"/>
  <rect class="cls-2" x="31.47" y="168.08" width="5.25" height="5.25"/>
  <polygon class="cls-2" points="34.1 129.25 31.47 126.62 31.47 131.87 36.72 131.87 34.1 129.25"/>
  <polygon class="cls-2" points="36.88 137.11 36.88 142.36 42.13 142.36 39.51 139.74 36.88 137.11"/>
  <polygon class="cls-2" points="47.21 152.85 44.59 150.23 41.97 147.6 41.97 152.85 47.21 152.85"/>
  <polygon class="cls-2" points="67.3 141.46 63.58 145.17 66.02 147.6 62.95 147.6 57.7 147.6 52.46 147.6 47.21 147.6 49.83 150.23 52.46 152.85 57.7 152.85 62.95 152.85 71.27 152.85 74.71 156.3 78.42 160.01 82.13 163.72 85.84 167.43 86.5 168.08 83.93 168.08 78.69 168.08 73.44 168.08 68.19 168.08 62.95 168.08 57.7 168.08 52.46 168.08 47.21 168.08 41.97 168.08 41.97 173.32 47.21 173.32 52.46 173.32 57.7 173.32 62.95 173.32 68.19 173.32 73.44 173.32 78.69 173.32 83.93 173.32 89.18 173.32 93.93 173.32 94.42 173.32 99.18 173.32 96.59 170.66 93.93 168.08 93.93 168.1 93.26 167.43 89.55 163.72 85.84 160.01 82.13 156.3 78.42 152.59 74.71 148.88 71 145.17 67.3 141.46"/>
  <path class="cls-2" d="M15.74,162.85h5.26v5.23h-5.26v-5.23ZM10.49,173.32h15.74v-5.23h0v-10.53h-15.74v10.48h-5.25v-15.67h21v-31.47h-15.75v15.73h-5.25v-49.15l1.09,1.08,3.67,3.72,3.71,3.71,3.71,3.7,3.13,3.14,3.75,3.73,3.7,3.69,3.71,3.71,3.71,3.71,3.71,3.71h7.42l-3.71-3.71-3.71-3.71-3.71-3.71-3.7-3.69-3.72-3.73-3.71-3.71-3.13-3.13-.58-.58-3.13-3.13-3.7-3.72-3.75-3.7-3.67-3.71-6.33-6.33v67.06h15.74v-15.74h5.26v21H0v5.23h0v15.71h0v5.23h10.49Z"/>
  <rect class="cls-2" x="51.53" y="33.68" width="5.25" height="5.25" transform="translate(-9.81 48.93) rotate(-45)"/>
  <rect class="cls-2" x="58.95" y="41.1" width="5.25" height="5.25" transform="translate(-12.88 56.35) rotate(-45)"/>
  <polygon class="cls-2" points="72.36 84.23 72.36 78.98 72.36 73.73 68.65 70.03 64.94 66.31 61.23 62.61 61.23 66.31 61.23 70.03 64.94 73.73 67.11 75.91 67.11 78.98 67.11 83.33 64.94 81.15 61.23 77.44 57.52 73.73 57.52 77.44 57.52 81.15 61.23 84.86 64.94 88.57 67.11 90.74 67.11 94.72 72.36 94.72 72.36 89.47 72.36 84.23"/>
  <rect class="cls-2" x="25.59" y="89.3" width="5.25" height="5.25" transform="translate(-56.74 46.87) rotate(-45)"/>
  <polygon class="cls-2" points="57.52 62.61 57.52 58.9 53.81 62.61 57.52 66.32 57.52 62.61"/>
  <polygon class="cls-2" points="53.93 77.56 53.93 73.85 53.93 70.14 50.22 73.85 53.93 77.56"/>
  <polygon class="cls-2" points="50.1 84.86 50.1 81.15 46.4 84.86 50.1 88.57 50.1 84.86"/>
  <polygon class="cls-2" points="67.11 98.16 64.94 95.99 61.23 92.28 57.52 88.57 53.81 84.86 53.81 88.57 53.81 92.28 57.52 95.99 61.23 99.7 67.11 105.58 67.11 110.45 67.11 115.7 67.11 120.95 67.11 126.19 67.11 127.12 65.3 125.3 61.59 121.59 57.88 117.89 54.17 114.18 50.47 110.47 46.76 106.76 43.05 103.05 39.34 99.34 35.63 95.63 31.92 99.34 35.63 103.05 39.34 106.76 43.05 110.47 46.76 114.18 50.47 117.89 54.17 121.59 57.88 125.3 61.59 129.01 65.3 132.72 68.66 136.09 69.01 136.43 72.37 139.79 72.36 94.72 67.11 94.72 67.11 98.16"/>
  <path class="cls-2" d="M20.78,73.38l3.71,3.71-3.7,3.7-3.71-3.71,3.7-3.7ZM9.66,77.08l3.71,3.71,3.71,3.71,3.71,3.71,3.7-3.7h0l3.7-3.7,3.71-3.71-3.7-3.72-3.71-3.71-3.71-3.7-3.71,3.7-3.7,3.7-3.71-3.71,3.7-3.69,3.71-3.71,3.7-3.7,3.71,3.71,3.71,3.71,3.71,3.71,3.71,3.7,3.71-3.7,3.68-3.71,3.71-3.71,3.73-3.71,3.71-3.71,3.71-3.71-3.71-3.71-3.71-3.71-3.71-3.71-3.73,3.71-3.7,3.71-3.71,3.71-3.69-3.71,24.39-24.4,3.71-3.71,3.71-3.71,2.94-2.94v47.94l2.63,2.62,2.62,2.63V.02l-4.48,4.47-.77.76-2.94,3-3.71,3.65-3.71,3.71-3.71,3.71-28.1,28.11,3.71,3.71,3.71,3.71,3.71,3.71,3.71-3.71,3.68-3.71,3.71-3.71,3.71,3.71-3.71,3.71-3.71,3.71-3.7,3.71-3.71,3.71-3.69-3.71-3.71-3.71-3.71-3.71-3.71-3.71-3.7,3.7h0l-3.71,3.72-3.71,3.7-3.65,3.69h0l-3.76,3.71,3.76,3.71,3.66,3.71Z"/>
  <rect class="cls-2" x="134.82" y="10.51" width="5.25" height="5.25"/>
  <rect class="cls-2" x="134.82" y="21" width="5.25" height="5.25"/>
  <polygon class="cls-2" points="116.43 59.89 120.14 56.18 123.85 52.47 123.85 47.23 123.85 41.98 123.85 36.74 121.22 39.36 118.6 41.98 118.6 47.23 118.6 50.3 116.43 52.47 113.36 55.55 113.36 52.47 113.36 47.23 113.36 41.98 110.73 44.61 108.11 47.23 108.11 52.47 108.11 57.72 108.11 60.79 105.3 63.6 109.01 67.31 112.72 63.6 116.43 59.89"/>
  <rect class="cls-2" x="77.14" y="31.49" width="5.25" height="5.25"/>
  <polygon class="cls-2" points="118.6 36.74 121.23 34.11 123.85 31.49 118.6 31.49 118.6 36.74"/>
  <polygon class="cls-2" points="108.11 42.15 110.73 39.52 113.36 36.9 108.11 36.9 108.11 42.15"/>
  <polygon class="cls-2" points="97.62 47.23 100.24 44.61 102.87 41.98 97.62 41.98 97.62 47.23"/>
  <polygon class="cls-2" points="82.39 93.95 82.37 93.95 83.05 93.28 86.75 89.57 90.46 85.86 94.17 82.15 97.88 78.44 101.59 74.73 105.3 71.02 109.01 67.31 105.3 63.6 102.87 66.04 102.87 62.97 102.87 57.72 102.87 52.47 102.87 47.23 100.24 49.85 97.62 52.47 97.62 57.72 97.62 62.97 97.62 71.28 94.17 74.73 90.46 78.44 86.75 82.15 83.05 85.86 82.39 86.51 82.39 83.95 82.39 78.7 82.39 73.46 82.39 68.21 82.39 62.97 82.39 57.72 82.39 52.47 82.39 47.23 82.39 41.98 77.14 41.98 77.14 47.23 77.14 52.47 77.14 57.72 77.14 62.97 77.14 68.21 77.14 73.46 77.14 78.7 77.14 83.95 77.14 89.2 77.14 93.95 77.14 94.44 77.14 99.2 79.81 96.61 82.39 93.95"/>
  <path class="cls-2" d="M82.39,15.75h5.23v5.25h-5.23v-5.25ZM82.39,26.25h10.48v-15.69h-10.48v-5.3h15.71v21h31.47v-15.7h-15.73v-5.3h49.16l-1.09,1.09-3.71,3.71-3.71,3.71-3.7,3.71-3.14,3.13-3.71,3.71-3.71,3.71-3.71,3.71-3.71,3.71-3.71,3.71v7.4l3.71-3.71,3.71-3.71,3.71-3.71,3.71-3.71,3.71-3.71,3.71-3.71,3.13-3.13.58-.58,3.13-3.13,3.71-3.71,3.71-3.71,3.71-3.71L175.66,0h-67.07v15.75h15.74v5.25h-21V0h-26.18v26.25h5.24Z"/>
  <rect class="cls-2" x="212.16" y="50.99" width="5.25" height="5.25" transform="translate(25 167.58) rotate(-45)"/>
  <rect class="cls-2" x="204.74" y="58.41" width="5.25" height="5.25" transform="translate(17.57 164.5) rotate(-45)"/>
  <rect class="cls-2" x="156.53" y="25.05" width="5.25" height="5.25" transform="translate(27.05 120.65) rotate(-45)"/>
  <polygon class="cls-2" points="192.18 56.98 188.47 53.27 184.76 56.98 188.47 56.98 192.18 56.98"/>
  <polygon class="cls-2" points="180.94 53.39 177.23 49.68 173.52 53.39 177.23 53.39 180.94 53.39"/>
  <polygon class="cls-2" points="169.93 49.57 166.22 45.86 162.51 49.57 166.22 49.57 169.93 49.57"/>
  <polygon class="cls-2" points="145.87 71.82 151.12 71.82 156.36 71.82 161.61 71.82 166.85 71.82 172.1 71.82 177.34 71.82 181.05 68.11 184.76 64.4 188.47 60.69 184.76 60.69 181.05 60.69 177.34 64.4 175.17 66.58 172.1 66.58 167.75 66.58 169.93 64.4 173.63 60.69 177.34 56.98 173.63 56.98 169.93 56.98 166.22 60.69 162.51 64.4 160.33 66.58 156.36 66.58 152.91 66.58 155.09 64.4 158.8 60.69 162.51 56.98 166.22 53.27 162.51 53.27 158.8 53.27 155.09 56.98 151.38 60.69 145.5 66.58 140.62 66.58 140.62 66.58 135.38 66.58 130.13 66.58 124.89 66.58 123.96 66.58 125.77 64.76 129.48 61.05 133.19 57.34 136.9 53.63 140.61 49.93 144.32 46.22 148.03 42.51 151.74 38.8 155.45 35.09 151.74 31.38 148.03 35.09 144.32 38.8 140.61 42.51 136.9 46.22 133.19 49.93 129.48 53.63 125.77 57.34 122.06 61.05 118.35 64.76 114.99 68.12 114.64 68.47 111.28 71.83 114.99 71.89 118.7 71.83 118.69 71.82 119.64 71.82 124.89 71.82 130.13 71.82 135.38 71.82 140.62 71.82 145.87 71.82"/>
  <path class="cls-2" d="M174,23.95l-3.69-3.7,3.69-3.69,3.7,3.7-3.7,3.69ZM170.31,12.83l-3.73,3.73-3.71,3.71,3.7,3.7h0l3.69,3.7,3.74,3.7,3.71-3.71,3.71-3.71,3.71-3.71-3.73-3.68-3.7-3.7,3.71-3.71,3.7,3.7,3.71,3.71,3.7,3.7-3.71,3.71-3.71,3.71-3.71,3.71-3.71,3.71,3.71,3.71,3.71,3.71,3.71,3.7,3.71,3.71,3.71,3.71,3.71,3.71,3.71-3.71,3.71-3.71,3.71-3.71-3.71-3.7-3.71-3.71-3.71-3.71,3.71-3.71,24.4,24.39,3.7,3.71,3.71,3.71,2.95,2.94h-47.94l-2.62,2.63-2.63,2.62h65.84l-4.47-4.48-.77-.77-2.94-2.94-3.71-3.71-3.71-3.71-3.71-3.7-28.1-28.11-3.71,3.71-3.71,3.71-3.71,3.71,3.71,3.71,3.71,3.71,3.71,3.7-3.71,3.71-3.71-3.71-3.71-3.7-3.71-3.71-3.71-3.71,3.71-3.71,3.71-3.71,3.71-3.71,3.71-3.71-3.7-3.7h0l-3.7-3.7-3.71-3.71-3.7-3.7h0l-3.7-3.7-3.71,3.71-3.72,3.66-3.69,3.71Z"/>
  <rect class="cls-2" x="235.38" y="134.28" width="5.25" height="5.25"/>
  <rect class="cls-2" x="224.89" y="134.28" width="5.25" height="5.25"/>
  <rect class="cls-2" x="214.39" y="76.61" width="5.25" height="5.25"/>
  <polygon class="cls-2" points="217.02 120.69 219.64 123.31 219.64 118.06 214.4 118.06 217.02 120.69"/>
  <polygon class="cls-2" points="214.23 112.82 214.23 107.57 208.99 107.57 211.61 110.19 214.23 112.82"/>
  <polygon class="cls-2" points="203.9 97.08 206.53 99.7 209.15 102.33 209.15 97.08 203.9 97.08"/>
  <polygon class="cls-2" points="183.82 108.47 187.53 112.18 191.24 115.89 194.95 119.6 198.66 123.31 203.9 123.31 209.15 123.31 214.4 123.31 211.77 120.69 209.15 118.06 203.9 118.06 200.83 118.06 198.66 115.89 195.59 112.82 198.66 112.82 203.9 112.82 209.15 112.82 206.53 110.2 203.9 107.57 198.66 107.57 193.41 107.57 190.34 107.57 187.53 104.76 185.09 102.33 188.17 102.33 193.41 102.33 198.66 102.33 203.9 102.33 201.28 99.7 198.66 97.08 193.41 97.08 188.17 97.08 179.85 97.08 176.4 93.63 172.69 89.92 168.98 86.22 165.27 82.51 164.62 81.85 167.18 81.85 172.43 81.85 177.68 81.85 182.92 81.85 188.17 81.85 193.41 81.85 198.66 81.85 203.9 81.85 209.15 81.85 209.15 76.61 203.9 76.61 198.66 76.61 193.41 76.61 188.17 76.61 182.92 76.61 177.68 76.61 172.43 76.61 167.18 76.61 161.94 76.61 157.18 76.61 156.69 76.61 151.94 76.61 154.52 79.27 157.18 81.85 157.18 81.83 157.85 82.51 161.56 86.22 165.27 89.92 168.98 93.63 172.69 97.34 176.4 101.05 180.11 104.76 183.82 108.47"/>
  <path class="cls-2" d="M235.38,87.08h-5.25v-5.23h5.25v5.23ZM245.87,76.61h-21v5.23h0v10.49h15.73v-10.48h5.25v15.71h-21v31.47h15.73v-15.73h5.25v49.15l-1.09-1.09-3.71-3.7-3.71-3.71-3.7-3.71-3.14-3.14-3.71-3.71-3.71-3.71-3.71-3.71-3.71-3.71-3.64-3.7h-7.42l3.71,3.71,3.71,3.71,3.71,3.71,3.71,3.71,3.71,3.71,3.71,3.71,3.14,3.14.57.57,3.14,3.14,3.7,3.7,3.71,3.71,3.71,3.71,6.33,6.33v-67.07h-15.76v15.74h-5.25v-21h21v-5.23h0v-15.71h0v-5.24h-5.26Z"/>
  <rect class="cls-2" x="194.34" y="211" width="5.25" height="5.25" transform="translate(-93.37 201.85) rotate(-45)"/>
  <rect class="cls-2" x="186.92" y="203.58" width="5.25" height="5.25" transform="translate(-90.3 194.43) rotate(-45)"/>
  <polygon class="cls-2" points="178.75 165.71 178.75 170.95 178.75 176.2 182.46 179.91 186.17 183.62 189.88 187.33 189.88 183.62 189.88 179.91 186.17 176.2 184 174.03 184 170.95 184 166.61 186.17 168.78 189.88 172.49 193.59 176.2 193.59 172.49 193.59 168.78 189.88 165.07 186.17 161.36 184 159.19 184 155.21 184 151.77 186.17 153.94 189.88 157.65 193.59 161.36 197.3 165.07 197.3 161.36 197.3 157.65 193.59 153.94 189.88 150.23 184 144.35 184 139.48 184 134.23 184 128.99 184 123.74 184 122.81 185.81 124.63 189.52 128.34 193.23 132.05 196.94 135.75 200.65 139.47 204.36 143.17 208.07 146.88 211.78 150.59 215.49 154.3 219.2 150.59 215.49 146.88 211.78 143.17 208.07 139.47 204.36 135.75 200.65 132.05 196.94 128.34 193.23 124.63 189.52 120.92 185.81 117.21 182.45 113.85 182.1 113.5 178.74 110.14 178.75 155.21 178.75 160.46 178.75 165.71"/>
  <rect class="cls-2" x="220.29" y="155.39" width="5.25" height="5.25" transform="translate(-46.45 203.91) rotate(-45)"/>
  <polygon class="cls-2" points="193.59 187.32 193.59 191.03 197.3 187.32 193.59 183.62 193.59 187.32"/>
  <polygon class="cls-2" points="197.19 172.37 197.19 176.08 197.19 179.79 200.9 176.08 197.19 172.37"/>
  <polygon class="cls-2" points="201.01 165.07 201.01 168.78 204.72 165.07 201.01 161.36 201.01 165.07"/>
  <path class="cls-2" d="M230.34,176.56l-3.71-3.71,3.69-3.7,3.71,3.71-3.69,3.7ZM241.45,172.86l-3.71-3.71-3.74-3.72-3.71-3.71-3.69,3.7h0l-3.7,3.7-3.71,3.71,3.71,3.71,3.71,3.71,3.71,3.71,3.7-3.71,3.7-3.7,3.71,3.71-3.7,3.7-3.73,3.72-3.69,3.69-3.71-3.71-3.71-3.71-3.71-3.7-3.67-3.69-3.71,3.71-3.71,3.7-3.71,3.71-3.71,3.71-3.67,3.69-3.71,3.71,3.71,3.71,3.71,3.71,3.71,3.71,3.71-3.71,3.71-3.71,3.71-3.71,3.71,3.71-24.4,24.4-3.71,3.71-3.71,3.71-2.94,2.94v-47.94l-2.62-2.62-2.62-2.62v65.83l4.47-4.46.77-.77,2.94-2.94,3.71-3.71,3.71-3.71,3.71-3.71,28.11-28.11-3.71-3.71-3.71-3.71-3.71-3.71-3.71,3.71-3.71,3.71-3.71,3.71-3.71-3.71,3.71-3.71,3.71-3.71,3.71-3.71,3.71-3.71,3.71,3.71,3.71,3.71,3.71,3.71,3.71,3.71,3.69-3.7h0l3.69-3.7,3.71-3.7,3.7-3.7h0l3.7-3.7-3.72-3.73-3.71-3.7Z"/>
  <path class="cls-1" d="M345.46,101.76h-25.83v15.48h25.08v9.14h-25.08v21.54h25.83v9.14h-35.56v-64.44h35.56v9.14Z"/>
  <path class="cls-1" d="M403.35,141.41h-27.59l-7.18,15.65h-10.47l31.89-68.5,30.76,68.49h-10.65l-6.76-15.64ZM399.35,132.27l-9.55-21.91-10,21.91h19.55Z"/>
  <path class="cls-1" d="M472.5,102.22l-7.88,4.67c-1.48-2.56-2.88-4.23-4.22-5-1.63-.95-3.51-1.42-5.4-1.33-2.45-.09-4.84.73-6.72,2.29-1.72,1.38-2.7,3.48-2.67,5.68,0,3.14,2.33,5.67,7,7.6l6.43,2.63c5.23,2.11,9.06,4.69,11.47,7.74,2.47,3.2,3.76,7.16,3.63,11.2.17,5.51-1.98,10.84-5.92,14.69-3.94,3.88-9.29,5.99-14.82,5.84-5.59,0-10.21-1.67-13.85-5-3.64-3.33-5.88-8-6.72-14l9.85-2.17c.44,3.78,1.22,6.4,2.33,7.84,3.82,4.79,10.81,5.58,15.6,1.76.25-.2.49-.41.72-.63,2.01-2.06,3.09-4.85,3-7.72.01-1.17-.17-2.33-.53-3.44-.35-1.06-.9-2.03-1.62-2.88-.83-.96-1.79-1.79-2.86-2.46-1.33-.85-2.73-1.59-4.18-2.2l-6.14-2.53c-8.82-3.73-13.23-9.18-13.23-16.36-.07-4.68,1.96-9.14,5.55-12.15,3.82-3.32,8.75-5.08,13.81-4.92,7.41,0,13.2,3.62,17.37,10.85Z"/>
  <path class="cls-1" d="M505.6,129.22l-21-36.6h11.18l14.73,25.75,14.78-25.75h11.18l-21.11,36.6v27.84h-9.76v-27.84Z"/>
  <path class="cls-1" d="M594.5,117.83h27.8v-25.21h9.7v64.44h-9.7v-30.09h-27.8v30.09h-9.72v-64.44h9.72v25.21Z"/>
  <path class="cls-1" d="M690.28,101.76h-25.83v15.48h25.08v9.14h-25.08v21.54h25.83v9.14h-35.55v-64.44h35.55v9.14Z"/>
  <path class="cls-1" d="M748.17,141.41h-27.58l-7.18,15.65h-10.48l31.89-68.5,30.76,68.49h-10.65l-6.76-15.64ZM744.17,132.27l-9.56-21.91-10,21.91h19.56Z"/>
  <path class="cls-1" d="M790.62,92.62v55.3h18.94v9.14h-28.67v-64.44h9.73Z"/>
  <path class="cls-1" d="M839.66,101.76v55.3h-9.73v-55.3h-14.81v-9.14h39.31v9.14h-14.77Z"/>
  <path class="cls-1" d="M880.1,117.83h27.8v-25.21h9.72v64.44h-9.72v-30.09h-27.8v30.09h-9.72v-64.44h9.72v25.21Z"/>
</svg>